<?xml version="1.0" encoding="us-ascii" standalone="no"?><svg xmlns="http://www.w3.org/2000/svg" xmlns:xlink="http://www.w3.org/1999/xlink" contentStyleType="text/css" height="417px" preserveAspectRatio="none" style="width:1178px;height:417px;background:#FFFFFF;" version="1.1" viewBox="0 0 1178 417" width="1178px" zoomAndPan="magnify"><defs/><g><!--cluster interpreter_pattern--><g id="cluster_interpreter_pattern"><path d="M8.5,6 L167.5,6 A3.75,3.75 0 0 1 170,8.5 L177,28.2969 L1168.5,28.2969 A2.5,2.5 0 0 1 1171,30.7969 L1171,407.5 A2.5,2.5 0 0 1 1168.5,410 L8.5,410 A2.5,2.5 0 0 1 6,407.5 L6,8.5 A2.5,2.5 0 0 1 8.5,6 " fill="none" style="stroke:#000000;stroke-width:1.5;"/><line style="stroke:#000000;stroke-width:1.5;" x1="6" x2="177" y1="28.2969" y2="28.2969"/><text fill="#000000" font-family="sans-serif" font-size="14" font-weight="bold" lengthAdjust="spacing" textLength="158" x="10" y="20.9951">interpreter_pattern</text></g><!--cluster interpreter_pattern.dart--><g id="cluster_interpreter_pattern.dart"><path d="M32.5,49 L231.5,49 A3.75,3.75 0 0 1 234,51.5 L241,71.2969 L1144.5,71.2969 A2.5,2.5 0 0 1 1147,73.7969 L1147,383.5 A2.5,2.5 0 0 1 1144.5,386 L32.5,386 A2.5,2.5 0 0 1 30,383.5 L30,51.5 A2.5,2.5 0 0 1 32.5,49 " fill="none" style="stroke:#000000;stroke-width:1.5;"/><line style="stroke:#000000;stroke-width:1.5;" x1="30" x2="241" y1="71.2969" y2="71.2969"/><text fill="#000000" font-family="sans-serif" font-size="14" font-weight="bold" lengthAdjust="spacing" textLength="198" x="34" y="63.9951">interpreter_pattern.dart</text></g><!--class WeatherExpression--><g id="elem_WeatherExpression"><rect codeLine="3" fill="#F1F1F1" height="64.2969" id="WeatherExpression" rx="2.5" ry="2.5" style="stroke:#181818;stroke-width:0.5;" width="170" x="601" y="133"/><ellipse cx="616" cy="149" fill="#A9DCDF" rx="11" ry="11" style="stroke:#181818;stroke-width:1.0;"/><path d="M618.0781,150.8125 L618.4688,151.7969 L618.0781,151.7969 C617.625,151.7969 617.5156,151.8125 617.3594,151.9219 C617.1094,152.0781 616.9531,152.3594 616.9531,152.6563 C616.9531,152.9219 617.0938,153.1719 617.3125,153.3281 C617.4531,153.4531 617.6563,153.5 618.0781,153.5 L620.4375,153.5 C620.7969,153.5 621.0156,153.4688 621.1563,153.375 C621.4063,153.2344 621.5625,152.9375 621.5625,152.6563 C621.5625,152.375 621.4219,152.125 621.2031,151.9688 C621.0313,151.8281 620.875,151.7969 620.4063,151.7969 L617.0156,143.5938 L613.3438,143.5938 C612.8906,143.5938 612.7656,143.6094 612.6094,143.7031 C612.3594,143.875 612.2031,144.1563 612.2031,144.4375 C612.2031,144.7188 612.3438,144.9688 612.5625,145.1406 C612.7344,145.25 612.9063,145.2813 613.3438,145.2813 L614.4219,145.2813 L611.7813,151.7969 C611.3594,151.7969 611.2031,151.8125 611.0469,151.9219 C610.7969,152.0781 610.6406,152.3594 610.6406,152.6563 C610.6406,153.2188 611.0156,153.5 611.7656,153.5 L614.0313,153.5 C614.3906,153.5 614.6094,153.4688 614.7344,153.375 C615,153.2344 615.1406,152.9375 615.1406,152.6563 C615.1406,152.375 615.0156,152.125 614.7969,151.9531 C614.625,151.8281 614.4844,151.7969 614.0313,151.7969 L613.6406,151.7969 L614.0313,150.8125 L618.0781,150.8125 Z M617.375,149.1094 L614.7031,149.1094 L616.0469,145.8438 L617.375,149.1094 Z " fill="#000000"/><text fill="#000000" font-family="sans-serif" font-size="14" font-style="italic" lengthAdjust="spacing" textLength="138" x="630" y="153.8467">WeatherExpression</text><line style="stroke:#181818;stroke-width:0.5;" x1="602" x2="770" y1="165" y2="165"/><line style="stroke:#181818;stroke-width:0.5;" x1="602" x2="770" y1="173" y2="173"/><ellipse cx="612" cy="186.6484" fill="#84BE84" rx="3" ry="3" style="stroke:#038048;stroke-width:1.0;"/><text fill="#000000" font-family="sans-serif" font-size="14" lengthAdjust="spacing" textLength="111" x="621" y="189.9951">void interpret()</text></g><!--class WeatherExpressionParser--><g id="elem_WeatherExpressionParser"><rect codeLine="7" fill="#F1F1F1" height="96.8906" id="WeatherExpressionParser" rx="2.5" ry="2.5" style="stroke:#181818;stroke-width:0.5;" width="310" x="253" y="116.5"/><ellipse cx="311.25" cy="132.5" fill="#ADD1B2" rx="11" ry="11" style="stroke:#181818;stroke-width:1.0;"/><path d="M313.5938,128.1719 C312.6563,127.7344 312.0625,127.5938 311.1875,127.5938 C308.5625,127.5938 306.5625,129.6719 306.5625,132.3906 L306.5625,133.5156 C306.5625,136.0938 308.6719,137.9844 311.5625,137.9844 C312.7813,137.9844 313.9375,137.6875 314.6875,137.1406 C315.2656,136.7344 315.5938,136.2813 315.5938,135.8906 C315.5938,135.4375 315.2031,135.0469 314.7344,135.0469 C314.5156,135.0469 314.3125,135.125 314.125,135.3125 C313.6719,135.7969 313.6719,135.7969 313.4844,135.8906 C313.0625,136.1563 312.375,136.2813 311.6094,136.2813 C309.5625,136.2813 308.2656,135.1875 308.2656,133.4844 L308.2656,132.3906 C308.2656,130.6094 309.5156,129.2969 311.25,129.2969 C311.8281,129.2969 312.4375,129.4531 312.9063,129.7031 C313.3906,129.9844 313.5625,130.2031 313.6563,130.6094 C313.7188,131.0156 313.75,131.1406 313.8906,131.2656 C314.0313,131.4063 314.2656,131.5156 314.4844,131.5156 C314.75,131.5156 315.0156,131.375 315.1875,131.1563 C315.2969,131 315.3281,130.8125 315.3281,130.3906 L315.3281,128.9688 C315.3281,128.5313 315.3125,128.4063 315.2188,128.25 C315.0625,127.9844 314.7813,127.8438 314.4844,127.8438 C314.1875,127.8438 313.9844,127.9375 313.7656,128.25 L313.5938,128.1719 Z " fill="#000000"/><text fill="#000000" font-family="sans-serif" font-size="14" lengthAdjust="spacing" textLength="185" x="331.75" y="137.3467">WeatherExpressionParser</text><line style="stroke:#181818;stroke-width:0.5;" x1="254" x2="562" y1="148.5" y2="148.5"/><rect fill="none" height="6" style="stroke:#C82930;stroke-width:1.0;" width="6" x="261" y="159.1484"/><text fill="#000000" font-family="sans-serif" font-size="14" lengthAdjust="spacing" textLength="284" x="273" y="165.4951">List&lt;WeatherExpression&gt; _expressions</text><line style="stroke:#181818;stroke-width:0.5;" x1="254" x2="562" y1="172.7969" y2="172.7969"/><ellipse cx="264" cy="186.4453" fill="#84BE84" rx="3" ry="3" style="stroke:#038048;stroke-width:1.0;"/><text fill="#000000" font-family="sans-serif" font-size="14" lengthAdjust="spacing" textLength="84" x="273" y="189.792">void parse()</text><ellipse cx="264" cy="202.7422" fill="#84BE84" rx="3" ry="3" style="stroke:#038048;stroke-width:1.0;"/><text fill="#000000" font-family="sans-serif" font-size="14" lengthAdjust="spacing" textLength="111" x="273" y="206.0889">void interpret()</text></g><!--class WeatherContext--><g id="elem_WeatherContext"><rect codeLine="13" fill="#F1F1F1" height="162.0781" id="WeatherContext" rx="2.5" ry="2.5" style="stroke:#181818;stroke-width:0.5;" width="153" x="58.5" y="84"/><ellipse cx="73.5" cy="100" fill="#ADD1B2" rx="11" ry="11" style="stroke:#181818;stroke-width:1.0;"/><path d="M75.8438,95.6719 C74.9063,95.2344 74.3125,95.0938 73.4375,95.0938 C70.8125,95.0938 68.8125,97.1719 68.8125,99.8906 L68.8125,101.0156 C68.8125,103.5938 70.9219,105.4844 73.8125,105.4844 C75.0313,105.4844 76.1875,105.1875 76.9375,104.6406 C77.5156,104.2344 77.8438,103.7813 77.8438,103.3906 C77.8438,102.9375 77.4531,102.5469 76.9844,102.5469 C76.7656,102.5469 76.5625,102.625 76.375,102.8125 C75.9219,103.2969 75.9219,103.2969 75.7344,103.3906 C75.3125,103.6563 74.625,103.7813 73.8594,103.7813 C71.8125,103.7813 70.5156,102.6875 70.5156,100.9844 L70.5156,99.8906 C70.5156,98.1094 71.7656,96.7969 73.5,96.7969 C74.0781,96.7969 74.6875,96.9531 75.1563,97.2031 C75.6406,97.4844 75.8125,97.7031 75.9063,98.1094 C75.9688,98.5156 76,98.6406 76.1406,98.7656 C76.2813,98.9063 76.5156,99.0156 76.7344,99.0156 C77,99.0156 77.2656,98.875 77.4375,98.6563 C77.5469,98.5 77.5781,98.3125 77.5781,97.8906 L77.5781,96.4688 C77.5781,96.0313 77.5625,95.9063 77.4688,95.75 C77.3125,95.4844 77.0313,95.3438 76.7344,95.3438 C76.4375,95.3438 76.2344,95.4375 76.0156,95.75 L75.8438,95.6719 Z " fill="#000000"/><text fill="#000000" font-family="sans-serif" font-size="14" lengthAdjust="spacing" textLength="121" x="87.5" y="104.8467">WeatherContext</text><line style="stroke:#181818;stroke-width:0.5;" x1="59.5" x2="210.5" y1="116" y2="116"/><ellipse cx="69.5" cy="129.6484" fill="none" rx="3" ry="3" style="stroke:#038048;stroke-width:1.0;"/><text fill="#000000" font-family="sans-serif" font-size="14" lengthAdjust="spacing" textLength="90" x="78.5" y="132.9951">bool isSunny</text><ellipse cx="69.5" cy="145.9453" fill="none" rx="3" ry="3" style="stroke:#038048;stroke-width:1.0;"/><text fill="#000000" font-family="sans-serif" font-size="14" lengthAdjust="spacing" textLength="95" x="78.5" y="149.292">bool isCloudy</text><ellipse cx="69.5" cy="162.2422" fill="none" rx="3" ry="3" style="stroke:#038048;stroke-width:1.0;"/><text fill="#000000" font-family="sans-serif" font-size="14" lengthAdjust="spacing" textLength="86" x="78.5" y="165.5889">bool isRainy</text><ellipse cx="69.5" cy="178.5391" fill="none" rx="3" ry="3" style="stroke:#038048;stroke-width:1.0;"/><text fill="#000000" font-family="sans-serif" font-size="14" lengthAdjust="spacing" textLength="91" x="78.5" y="181.8857">bool isWindy</text><ellipse cx="69.5" cy="194.8359" fill="none" rx="3" ry="3" style="stroke:#038048;stroke-width:1.0;"/><text fill="#000000" font-family="sans-serif" font-size="14" lengthAdjust="spacing" textLength="89" x="78.5" y="198.1826">bool isWarm</text><ellipse cx="69.5" cy="211.1328" fill="none" rx="3" ry="3" style="stroke:#038048;stroke-width:1.0;"/><text fill="#000000" font-family="sans-serif" font-size="14" lengthAdjust="spacing" textLength="79" x="78.5" y="214.4795">bool isCold</text><ellipse cx="69.5" cy="227.4297" fill="none" rx="3" ry="3" style="stroke:#038048;stroke-width:1.0;"/><text fill="#000000" font-family="sans-serif" font-size="14" lengthAdjust="spacing" textLength="108" x="78.5" y="230.7764">String forecast</text><line style="stroke:#181818;stroke-width:0.5;" x1="59.5" x2="210.5" y1="238.0781" y2="238.0781"/></g><!--class SunnyExpression--><g id="elem_SunnyExpression"><rect codeLine="23" fill="#F1F1F1" height="64.2969" id="SunnyExpression" rx="2.5" ry="2.5" style="stroke:#181818;stroke-width:0.5;" width="153" x="46.5" y="306"/><ellipse cx="61.5" cy="322" fill="#ADD1B2" rx="11" ry="11" style="stroke:#181818;stroke-width:1.0;"/><path d="M63.8438,317.6719 C62.9063,317.2344 62.3125,317.0938 61.4375,317.0938 C58.8125,317.0938 56.8125,319.1719 56.8125,321.8906 L56.8125,323.0156 C56.8125,325.5938 58.9219,327.4844 61.8125,327.4844 C63.0313,327.4844 64.1875,327.1875 64.9375,326.6406 C65.5156,326.2344 65.8438,325.7813 65.8438,325.3906 C65.8438,324.9375 65.4531,324.5469 64.9844,324.5469 C64.7656,324.5469 64.5625,324.625 64.375,324.8125 C63.9219,325.2969 63.9219,325.2969 63.7344,325.3906 C63.3125,325.6563 62.625,325.7813 61.8594,325.7813 C59.8125,325.7813 58.5156,324.6875 58.5156,322.9844 L58.5156,321.8906 C58.5156,320.1094 59.7656,318.7969 61.5,318.7969 C62.0781,318.7969 62.6875,318.9531 63.1563,319.2031 C63.6406,319.4844 63.8125,319.7031 63.9063,320.1094 C63.9688,320.5156 64,320.6406 64.1406,320.7656 C64.2813,320.9063 64.5156,321.0156 64.7344,321.0156 C65,321.0156 65.2656,320.875 65.4375,320.6563 C65.5469,320.5 65.5781,320.3125 65.5781,319.8906 L65.5781,318.4688 C65.5781,318.0313 65.5625,317.9063 65.4688,317.75 C65.3125,317.4844 65.0313,317.3438 64.7344,317.3438 C64.4375,317.3438 64.2344,317.4375 64.0156,317.75 L63.8438,317.6719 Z " fill="#000000"/><text fill="#000000" font-family="sans-serif" font-size="14" lengthAdjust="spacing" textLength="121" x="75.5" y="326.8467">SunnyExpression</text><line style="stroke:#181818;stroke-width:0.5;" x1="47.5" x2="198.5" y1="338" y2="338"/><line style="stroke:#181818;stroke-width:0.5;" x1="47.5" x2="198.5" y1="346" y2="346"/><ellipse cx="57.5" cy="359.6484" fill="#84BE84" rx="3" ry="3" style="stroke:#038048;stroke-width:1.0;"/><text fill="#000000" font-family="sans-serif" font-size="14" lengthAdjust="spacing" textLength="111" x="66.5" y="362.9951">void interpret()</text></g><!--class CloudyExpression--><g id="elem_CloudyExpression"><rect codeLine="29" fill="#F1F1F1" height="64.2969" id="CloudyExpression" rx="2.5" ry="2.5" style="stroke:#181818;stroke-width:0.5;" width="158" x="235" y="306"/><ellipse cx="250" cy="322" fill="#ADD1B2" rx="11" ry="11" style="stroke:#181818;stroke-width:1.0;"/><path d="M252.3438,317.6719 C251.4063,317.2344 250.8125,317.0938 249.9375,317.0938 C247.3125,317.0938 245.3125,319.1719 245.3125,321.8906 L245.3125,323.0156 C245.3125,325.5938 247.4219,327.4844 250.3125,327.4844 C251.5313,327.4844 252.6875,327.1875 253.4375,326.6406 C254.0156,326.2344 254.3438,325.7813 254.3438,325.3906 C254.3438,324.9375 253.9531,324.5469 253.4844,324.5469 C253.2656,324.5469 253.0625,324.625 252.875,324.8125 C252.4219,325.2969 252.4219,325.2969 252.2344,325.3906 C251.8125,325.6563 251.125,325.7813 250.3594,325.7813 C248.3125,325.7813 247.0156,324.6875 247.0156,322.9844 L247.0156,321.8906 C247.0156,320.1094 248.2656,318.7969 250,318.7969 C250.5781,318.7969 251.1875,318.9531 251.6563,319.2031 C252.1406,319.4844 252.3125,319.7031 252.4063,320.1094 C252.4688,320.5156 252.5,320.6406 252.6406,320.7656 C252.7813,320.9063 253.0156,321.0156 253.2344,321.0156 C253.5,321.0156 253.7656,320.875 253.9375,320.6563 C254.0469,320.5 254.0781,320.3125 254.0781,319.8906 L254.0781,318.4688 C254.0781,318.0313 254.0625,317.9063 253.9688,317.75 C253.8125,317.4844 253.5313,317.3438 253.2344,317.3438 C252.9375,317.3438 252.7344,317.4375 252.5156,317.75 L252.3438,317.6719 Z " fill="#000000"/><text fill="#000000" font-family="sans-serif" font-size="14" lengthAdjust="spacing" textLength="126" x="264" y="326.8467">CloudyExpression</text><line style="stroke:#181818;stroke-width:0.5;" x1="236" x2="392" y1="338" y2="338"/><line style="stroke:#181818;stroke-width:0.5;" x1="236" x2="392" y1="346" y2="346"/><ellipse cx="246" cy="359.6484" fill="#84BE84" rx="3" ry="3" style="stroke:#038048;stroke-width:1.0;"/><text fill="#000000" font-family="sans-serif" font-size="14" lengthAdjust="spacing" textLength="111" x="255" y="362.9951">void interpret()</text></g><!--class RainyExpression--><g id="elem_RainyExpression"><rect codeLine="35" fill="#F1F1F1" height="64.2969" id="RainyExpression" rx="2.5" ry="2.5" style="stroke:#181818;stroke-width:0.5;" width="149" x="428.5" y="306"/><ellipse cx="443.5" cy="322" fill="#ADD1B2" rx="11" ry="11" style="stroke:#181818;stroke-width:1.0;"/><path d="M445.8438,317.6719 C444.9063,317.2344 444.3125,317.0938 443.4375,317.0938 C440.8125,317.0938 438.8125,319.1719 438.8125,321.8906 L438.8125,323.0156 C438.8125,325.5938 440.9219,327.4844 443.8125,327.4844 C445.0313,327.4844 446.1875,327.1875 446.9375,326.6406 C447.5156,326.2344 447.8438,325.7813 447.8438,325.3906 C447.8438,324.9375 447.4531,324.5469 446.9844,324.5469 C446.7656,324.5469 446.5625,324.625 446.375,324.8125 C445.9219,325.2969 445.9219,325.2969 445.7344,325.3906 C445.3125,325.6563 444.625,325.7813 443.8594,325.7813 C441.8125,325.7813 440.5156,324.6875 440.5156,322.9844 L440.5156,321.8906 C440.5156,320.1094 441.7656,318.7969 443.5,318.7969 C444.0781,318.7969 444.6875,318.9531 445.1563,319.2031 C445.6406,319.4844 445.8125,319.7031 445.9063,320.1094 C445.9688,320.5156 446,320.6406 446.1406,320.7656 C446.2813,320.9063 446.5156,321.0156 446.7344,321.0156 C447,321.0156 447.2656,320.875 447.4375,320.6563 C447.5469,320.5 447.5781,320.3125 447.5781,319.8906 L447.5781,318.4688 C447.5781,318.0313 447.5625,317.9063 447.4688,317.75 C447.3125,317.4844 447.0313,317.3438 446.7344,317.3438 C446.4375,317.3438 446.2344,317.4375 446.0156,317.75 L445.8438,317.6719 Z " fill="#000000"/><text fill="#000000" font-family="sans-serif" font-size="14" lengthAdjust="spacing" textLength="117" x="457.5" y="326.8467">RainyExpression</text><line style="stroke:#181818;stroke-width:0.5;" x1="429.5" x2="576.5" y1="338" y2="338"/><line style="stroke:#181818;stroke-width:0.5;" x1="429.5" x2="576.5" y1="346" y2="346"/><ellipse cx="439.5" cy="359.6484" fill="#84BE84" rx="3" ry="3" style="stroke:#038048;stroke-width:1.0;"/><text fill="#000000" font-family="sans-serif" font-size="14" lengthAdjust="spacing" textLength="111" x="448.5" y="362.9951">void interpret()</text></g><!--class WindyExpression--><g id="elem_WindyExpression"><rect codeLine="41" fill="#F1F1F1" height="64.2969" id="WindyExpression" rx="2.5" ry="2.5" style="stroke:#181818;stroke-width:0.5;" width="154" x="613" y="306"/><ellipse cx="628" cy="322" fill="#ADD1B2" rx="11" ry="11" style="stroke:#181818;stroke-width:1.0;"/><path d="M630.3438,317.6719 C629.4063,317.2344 628.8125,317.0938 627.9375,317.0938 C625.3125,317.0938 623.3125,319.1719 623.3125,321.8906 L623.3125,323.0156 C623.3125,325.5938 625.4219,327.4844 628.3125,327.4844 C629.5313,327.4844 630.6875,327.1875 631.4375,326.6406 C632.0156,326.2344 632.3438,325.7813 632.3438,325.3906 C632.3438,324.9375 631.9531,324.5469 631.4844,324.5469 C631.2656,324.5469 631.0625,324.625 630.875,324.8125 C630.4219,325.2969 630.4219,325.2969 630.2344,325.3906 C629.8125,325.6563 629.125,325.7813 628.3594,325.7813 C626.3125,325.7813 625.0156,324.6875 625.0156,322.9844 L625.0156,321.8906 C625.0156,320.1094 626.2656,318.7969 628,318.7969 C628.5781,318.7969 629.1875,318.9531 629.6563,319.2031 C630.1406,319.4844 630.3125,319.7031 630.4063,320.1094 C630.4688,320.5156 630.5,320.6406 630.6406,320.7656 C630.7813,320.9063 631.0156,321.0156 631.2344,321.0156 C631.5,321.0156 631.7656,320.875 631.9375,320.6563 C632.0469,320.5 632.0781,320.3125 632.0781,319.8906 L632.0781,318.4688 C632.0781,318.0313 632.0625,317.9063 631.9688,317.75 C631.8125,317.4844 631.5313,317.3438 631.2344,317.3438 C630.9375,317.3438 630.7344,317.4375 630.5156,317.75 L630.3438,317.6719 Z " fill="#000000"/><text fill="#000000" font-family="sans-serif" font-size="14" lengthAdjust="spacing" textLength="122" x="642" y="326.8467">WindyExpression</text><line style="stroke:#181818;stroke-width:0.5;" x1="614" x2="766" y1="338" y2="338"/><line style="stroke:#181818;stroke-width:0.5;" x1="614" x2="766" y1="346" y2="346"/><ellipse cx="624" cy="359.6484" fill="#84BE84" rx="3" ry="3" style="stroke:#038048;stroke-width:1.0;"/><text fill="#000000" font-family="sans-serif" font-size="14" lengthAdjust="spacing" textLength="111" x="633" y="362.9951">void interpret()</text></g><!--class WarmExpression--><g id="elem_WarmExpression"><rect codeLine="47" fill="#F1F1F1" height="64.2969" id="WarmExpression" rx="2.5" ry="2.5" style="stroke:#181818;stroke-width:0.5;" width="152" x="802" y="306"/><ellipse cx="817" cy="322" fill="#ADD1B2" rx="11" ry="11" style="stroke:#181818;stroke-width:1.0;"/><path d="M819.3438,317.6719 C818.4063,317.2344 817.8125,317.0938 816.9375,317.0938 C814.3125,317.0938 812.3125,319.1719 812.3125,321.8906 L812.3125,323.0156 C812.3125,325.5938 814.4219,327.4844 817.3125,327.4844 C818.5313,327.4844 819.6875,327.1875 820.4375,326.6406 C821.0156,326.2344 821.3438,325.7813 821.3438,325.3906 C821.3438,324.9375 820.9531,324.5469 820.4844,324.5469 C820.2656,324.5469 820.0625,324.625 819.875,324.8125 C819.4219,325.2969 819.4219,325.2969 819.2344,325.3906 C818.8125,325.6563 818.125,325.7813 817.3594,325.7813 C815.3125,325.7813 814.0156,324.6875 814.0156,322.9844 L814.0156,321.8906 C814.0156,320.1094 815.2656,318.7969 817,318.7969 C817.5781,318.7969 818.1875,318.9531 818.6563,319.2031 C819.1406,319.4844 819.3125,319.7031 819.4063,320.1094 C819.4688,320.5156 819.5,320.6406 819.6406,320.7656 C819.7813,320.9063 820.0156,321.0156 820.2344,321.0156 C820.5,321.0156 820.7656,320.875 820.9375,320.6563 C821.0469,320.5 821.0781,320.3125 821.0781,319.8906 L821.0781,318.4688 C821.0781,318.0313 821.0625,317.9063 820.9688,317.75 C820.8125,317.4844 820.5313,317.3438 820.2344,317.3438 C819.9375,317.3438 819.7344,317.4375 819.5156,317.75 L819.3438,317.6719 Z " fill="#000000"/><text fill="#000000" font-family="sans-serif" font-size="14" lengthAdjust="spacing" textLength="120" x="831" y="326.8467">WarmExpression</text><line style="stroke:#181818;stroke-width:0.5;" x1="803" x2="953" y1="338" y2="338"/><line style="stroke:#181818;stroke-width:0.5;" x1="803" x2="953" y1="346" y2="346"/><ellipse cx="813" cy="359.6484" fill="#84BE84" rx="3" ry="3" style="stroke:#038048;stroke-width:1.0;"/><text fill="#000000" font-family="sans-serif" font-size="14" lengthAdjust="spacing" textLength="111" x="822" y="362.9951">void interpret()</text></g><!--class ColdExpression--><g id="elem_ColdExpression"><rect codeLine="53" fill="#F1F1F1" height="64.2969" id="ColdExpression" rx="2.5" ry="2.5" style="stroke:#181818;stroke-width:0.5;" width="142" x="989" y="306"/><ellipse cx="1004" cy="322" fill="#ADD1B2" rx="11" ry="11" style="stroke:#181818;stroke-width:1.0;"/><path d="M1006.3438,317.6719 C1005.4063,317.2344 1004.8125,317.0938 1003.9375,317.0938 C1001.3125,317.0938 999.3125,319.1719 999.3125,321.8906 L999.3125,323.0156 C999.3125,325.5938 1001.4219,327.4844 1004.3125,327.4844 C1005.5313,327.4844 1006.6875,327.1875 1007.4375,326.6406 C1008.0156,326.2344 1008.3438,325.7813 1008.3438,325.3906 C1008.3438,324.9375 1007.9531,324.5469 1007.4844,324.5469 C1007.2656,324.5469 1007.0625,324.625 1006.875,324.8125 C1006.4219,325.2969 1006.4219,325.2969 1006.2344,325.3906 C1005.8125,325.6563 1005.125,325.7813 1004.3594,325.7813 C1002.3125,325.7813 1001.0156,324.6875 1001.0156,322.9844 L1001.0156,321.8906 C1001.0156,320.1094 1002.2656,318.7969 1004,318.7969 C1004.5781,318.7969 1005.1875,318.9531 1005.6563,319.2031 C1006.1406,319.4844 1006.3125,319.7031 1006.4063,320.1094 C1006.4688,320.5156 1006.5,320.6406 1006.6406,320.7656 C1006.7813,320.9063 1007.0156,321.0156 1007.2344,321.0156 C1007.5,321.0156 1007.7656,320.875 1007.9375,320.6563 C1008.0469,320.5 1008.0781,320.3125 1008.0781,319.8906 L1008.0781,318.4688 C1008.0781,318.0313 1008.0625,317.9063 1007.9688,317.75 C1007.8125,317.4844 1007.5313,317.3438 1007.2344,317.3438 C1006.9375,317.3438 1006.7344,317.4375 1006.5156,317.75 L1006.3438,317.6719 Z " fill="#000000"/><text fill="#000000" font-family="sans-serif" font-size="14" lengthAdjust="spacing" textLength="110" x="1018" y="326.8467">ColdExpression</text><line style="stroke:#181818;stroke-width:0.5;" x1="990" x2="1130" y1="338" y2="338"/><line style="stroke:#181818;stroke-width:0.5;" x1="990" x2="1130" y1="346" y2="346"/><ellipse cx="1000" cy="359.6484" fill="#84BE84" rx="3" ry="3" style="stroke:#038048;stroke-width:1.0;"/><text fill="#000000" font-family="sans-serif" font-size="14" lengthAdjust="spacing" textLength="111" x="1009" y="362.9951">void interpret()</text></g><!--reverse link WeatherExpression to SunnyExpression--><g id="link_WeatherExpression_SunnyExpression"><path codeLine="27" d="M637.908,210.046 C620.75,223.564 600.553,237.185 580,246 C429.717,310.455 375.789,266.943 217,306 C211.327,307.395 205.502,308.967 199.667,310.643 " fill="none" id="WeatherExpression-backto-SunnyExpression" style="stroke:#181818;stroke-width:1.0;"/><polygon fill="none" points="633.47,204.633,653.341,197.276,642.395,215.419,633.47,204.633" style="stroke:#181818;stroke-width:1.0;"/></g><!--reverse link WeatherExpression to CloudyExpression--><g id="link_WeatherExpression_CloudyExpression"><path codeLine="33" d="M634.837,209.769 C618.106,222.638 598.938,235.946 580,246 C562.945,255.055 465.33,287.688 393.27,311.29 " fill="none" id="WeatherExpression-backto-CloudyExpression" style="stroke:#181818;stroke-width:1.0;"/><polygon fill="none" points="630.648,204.156,650.657,197.182,639.365,215.112,630.648,204.156" style="stroke:#181818;stroke-width:1.0;"/></g><!--reverse link WeatherExpression to RainyExpression--><g id="link_WeatherExpression_RainyExpression"><path codeLine="39" d="M637.586,211.239 C605.66,241.072 564.665,279.379 536.352,305.835 " fill="none" id="WeatherExpression-backto-RainyExpression" style="stroke:#181818;stroke-width:1.0;"/><polygon fill="none" points="633.043,205.904,652.435,197.364,642.601,216.134,633.043,205.904" style="stroke:#181818;stroke-width:1.0;"/></g><!--reverse link WeatherExpression to WindyExpression--><g id="link_WeatherExpression_WindyExpression"><path codeLine="45" d="M687.204,217.453 C687.877,246.241 688.694,281.183 689.271,305.835 " fill="none" id="WeatherExpression-backto-WindyExpression" style="stroke:#181818;stroke-width:1.0;"/><polygon fill="none" points="680.203,217.522,686.734,197.364,694.2,217.195,680.203,217.522" style="stroke:#181818;stroke-width:1.0;"/></g><!--reverse link WeatherExpression to WarmExpression--><g id="link_WeatherExpression_WarmExpression"><path codeLine="51" d="M736.339,210.833 C769.9,240.724 813.168,279.259 843.007,305.835 " fill="none" id="WeatherExpression-backto-WarmExpression" style="stroke:#181818;stroke-width:1.0;"/><polygon fill="none" points="731.495,215.893,721.216,197.364,740.807,205.438,731.495,215.893" style="stroke:#181818;stroke-width:1.0;"/></g><!--reverse link WeatherExpression to ColdExpression--><g id="link_WeatherExpression_ColdExpression"><path codeLine="57" d="M772.738,205.658 C839.491,236.179 930.447,277.766 991.99,305.905 " fill="none" id="WeatherExpression-backto-ColdExpression" style="stroke:#181818;stroke-width:1.0;"/><polygon fill="none" points="769.441,211.848,754.162,197.165,775.262,199.115,769.441,211.848" style="stroke:#181818;stroke-width:1.0;"/></g><!--SRC=[pPJ1JiCm38RlUGfhfo5K7Y2Qk4pSEA3rqEFajGOYTKbaUsWJyEwa6whQZGCAG-ebaHDR_lx4jf22nor9n9fAYiYeWS5QOt0ZobWhr2sAmCnv9OvCQLr7rBHvQtyul6kGrTgAK5-97_RfLiG5FuDt0t3x5bm3VTZyndmQSwKCJyX2VCfJF3hHnONBFQofDwJdYLraOlaFlcL87dlzbhy9eGKdvSxxmy1Ujc7N30zMw4OEbVEZ-mfvEumFRTEPfRBpB_0Sc6eKpOS_0lxgywvG68kFelWpOQxIqzDFMke5OgxMOrLDMkevONRpTVqoQQNdXDbAqoIOjj0nO7QVfX4txIuT0tu1]--></g></svg>